<svg width="116" height="92" viewBox="0 0 116 92" fill="none" xmlns="http://www.w3.org/2000/svg">
<path d="M0.546058 45.0961C-1.56746 39.2786 2.71678 33.12 8.87724 33.12H67.7138C71.4389 33.12 74.767 35.46 76.045 38.9777L90.9572 80.0239C93.0708 85.8414 88.7865 92 82.6261 92H23.7895C20.0644 92 16.7363 89.66 15.4583 86.1423L0.546058 45.0961Z" fill="#8CC8FF" fill-opacity="0.52"/>
<path d="M13.0457 28.5208C10.9452 22.7059 15.2289 16.56 21.3825 16.56H79.79C83.5211 16.56 86.8532 18.9074 88.1268 22.4331L102.954 63.4792C105.055 69.2941 100.771 75.44 94.6175 75.44H36.21C32.4789 75.44 29.1468 73.0926 27.8732 69.5669L13.0457 28.5208Z" fill="#8CC8FF" fill-opacity="0.55"/>
<path d="M25.0428 11.9761C22.9292 6.15863 27.2135 0 33.3739 0H92.2105C95.9356 0 99.2637 2.34003 100.542 5.85772L115.454 46.9039C117.567 52.7214 113.283 58.88 107.123 58.88H48.2862C44.5611 58.88 41.233 56.54 39.955 53.0223L25.0428 11.9761Z" fill="#8CC8FF" fill-opacity="0.55"/>
</svg>
